<svg xmlns="http://www.w3.org/2000/svg" width="375" viewBox="0 0 375 150" height="150" version="1.0"><defs><clipPath id="a"><path d="M 299.746094 36.640625 L 361.03125 36.640625 L 361.03125 97.925781 L 299.746094 97.925781 Z M 299.746094 36.640625"/></clipPath><clipPath id="b"><path d="M 84 107 L 156 107 L 156 127 L 84 127 Z M 84 107"/></clipPath><clipPath id="c"><path d="M 84.359375 108.433594 L 155.632812 105.171875 L 156.554688 125.273438 L 85.28125 128.535156 Z M 84.359375 108.433594"/></clipPath><clipPath id="d"><path d="M 84.359375 108.433594 L 155.632812 105.171875 L 156.554688 125.273438 L 85.28125 128.535156 Z M 84.359375 108.433594"/></clipPath><clipPath id="e"><path d="M 84.359375 108.433594 L 155.632812 105.171875 L 156.554688 125.273438 L 85.28125 128.535156 Z M 84.359375 108.433594"/></clipPath><clipPath id="f"><path d="M 95 117 L 96 117 L 96 118 L 95 118 Z M 95 117"/></clipPath><clipPath id="g"><path d="M 84.359375 108.433594 L 155.632812 105.171875 L 156.554688 125.273438 L 85.28125 128.535156 Z M 84.359375 108.433594"/></clipPath><clipPath id="h"><path d="M 84.359375 108.433594 L 155.632812 105.171875 L 156.554688 125.273438 L 85.28125 128.535156 Z M 84.359375 108.433594"/></clipPath><clipPath id="i"><path d="M 84.359375 108.433594 L 155.632812 105.171875 L 156.554688 125.273438 L 85.28125 128.535156 Z M 84.359375 108.433594"/></clipPath></defs><path fill="#FFF" d="M-37.5 -15H412.5V165H-37.5z"/><path fill="#FFF" d="M-37.5 -15H412.5V165H-37.5z"/><g clip-path="url(#a)"><path fill="#FFF" d="M 360.421875 74.472656 C 359.792969 74.058594 358.941406 74.253906 358.515625 74.867188 L 352.828125 83.027344 C 352.398438 83.640625 351.546875 83.835938 350.921875 83.421875 C 350.769531 83.320312 350.640625 83.195312 350.539062 83.042969 C 350.4375 82.890625 350.371094 82.726562 350.335938 82.546875 C 350.300781 82.367188 350.304688 82.1875 350.339844 82.011719 C 350.378906 81.832031 350.449219 81.667969 350.554688 81.519531 L 356.292969 73.285156 C 356.394531 73.136719 356.464844 72.972656 356.503906 72.796875 C 356.542969 72.621094 356.546875 72.445312 356.511719 72.269531 C 356.480469 72.09375 356.414062 71.929688 356.316406 71.777344 C 356.21875 71.625 356.09375 71.5 355.945312 71.398438 C 355.796875 71.292969 355.632812 71.226562 355.457031 71.1875 C 355.28125 71.148438 355.101562 71.144531 354.925781 71.175781 C 354.746094 71.210938 354.582031 71.273438 354.429688 71.371094 C 354.277344 71.46875 354.148438 71.589844 354.046875 71.738281 L 348.332031 79.933594 C 347.902344 80.550781 347.050781 80.742188 346.425781 80.328125 C 346.273438 80.230469 346.144531 80.101562 346.042969 79.949219 C 345.941406 79.800781 345.875 79.632812 345.839844 79.453125 C 345.804688 79.273438 345.808594 79.097656 345.84375 78.917969 C 345.882812 78.738281 345.953125 78.574219 346.058594 78.425781 L 351.773438 70.230469 C 352.199219 69.613281 352.085938 68.753906 351.472656 68.316406 C 351.324219 68.210938 351.160156 68.136719 350.984375 68.097656 C 350.804688 68.054688 350.625 68.050781 350.445312 68.082031 C 350.261719 68.113281 350.09375 68.175781 349.941406 68.273438 C 349.785156 68.371094 349.65625 68.496094 349.550781 68.644531 L 343.035156 77.996094 C 342.628906 78.582031 342.324219 79.210938 342.117188 79.890625 C 341.910156 80.570312 341.8125 81.261719 341.828125 81.972656 C 341.839844 82.683594 341.960938 83.371094 342.191406 84.042969 C 342.421875 84.714844 342.75 85.335938 343.175781 85.902344 C 341.507812 88.136719 338.65625 91.015625 335.046875 91.015625 C 326.304688 91.015625 325.511719 75.898438 325.511719 75.898438 L 325.738281 75.898438 C 336.644531 75.898438 345.488281 67.113281 345.488281 56.273438 C 345.488281 45.433594 336.644531 36.648438 325.738281 36.648438 L 306.953125 36.648438 C 306.480469 36.648438 306.011719 36.695312 305.546875 36.785156 C 305.082031 36.878906 304.632812 37.015625 304.195312 37.195312 C 303.757812 37.375 303.34375 37.59375 302.949219 37.855469 C 302.554688 38.117188 302.191406 38.414062 301.855469 38.746094 C 301.523438 39.078125 301.222656 39.441406 300.960938 39.832031 C 300.699219 40.222656 300.476562 40.636719 300.292969 41.070312 C 300.113281 41.503906 299.976562 41.953125 299.882812 42.414062 C 299.792969 42.875 299.746094 43.339844 299.746094 43.808594 L 299.746094 49.945312 C 299.746094 50.417969 299.832031 50.875 300 51.316406 C 300.171875 51.761719 300.414062 52.15625 300.730469 52.511719 C 301.050781 52.863281 301.417969 53.148438 301.84375 53.367188 C 302.265625 53.582031 302.714844 53.71875 303.1875 53.769531 L 305.113281 53.984375 C 306.316406 49.542969 311.085938 46.214844 316.8125 46.214844 C 323.445312 46.214844 333.570312 50.664062 333.570312 56.15625 C 333.570312 61.648438 323.445312 66.101562 316.8125 66.101562 C 311.339844 66.101562 306.773438 63.050781 305.332031 58.902344 L 303.257812 59.097656 C 302.777344 59.144531 302.320312 59.273438 301.890625 59.488281 C 301.457031 59.703125 301.078125 59.984375 300.753906 60.339844 C 300.429688 60.695312 300.179688 61.09375 300.007812 61.542969 C 299.832031 61.988281 299.746094 62.453125 299.746094 62.929688 L 299.746094 91.449219 C 299.746094 91.875 299.789062 92.296875 299.871094 92.714844 C 299.953125 93.128906 300.078125 93.535156 300.242188 93.929688 C 300.40625 94.320312 300.605469 94.695312 300.84375 95.046875 C 301.082031 95.398438 301.351562 95.726562 301.652344 96.027344 C 301.957031 96.328125 302.285156 96.597656 302.640625 96.832031 C 302.996094 97.070312 303.371094 97.269531 303.765625 97.429688 C 304.160156 97.59375 304.570312 97.714844 304.988281 97.800781 C 305.40625 97.882812 305.832031 97.921875 306.257812 97.921875 C 306.6875 97.921875 307.109375 97.882812 307.527344 97.800781 C 307.949219 97.714844 308.355469 97.59375 308.75 97.433594 C 309.144531 97.269531 309.519531 97.070312 309.875 96.835938 C 310.230469 96.597656 310.558594 96.332031 310.859375 96.03125 C 311.164062 95.730469 311.433594 95.40625 311.671875 95.050781 C 311.910156 94.699219 312.109375 94.328125 312.273438 93.9375 C 312.4375 93.542969 312.5625 93.140625 312.644531 92.722656 C 312.730469 92.308594 312.773438 91.886719 312.773438 91.460938 L 312.800781 75.898438 C 315.183594 87.179688 322.761719 98.589844 334.140625 97.894531 C 340.753906 97.488281 344.078125 92.210938 346.691406 88.332031 C 349.453125 89.15625 352.546875 88.203125 354.269531 85.726562 L 360.789062 76.378906 C 360.894531 76.226562 360.964844 76.0625 361.003906 75.886719 C 361.039062 75.707031 361.042969 75.527344 361.007812 75.347656 C 360.972656 75.167969 360.902344 75.003906 360.800781 74.851562 C 360.699219 74.699219 360.574219 74.574219 360.421875 74.472656 Z M 360.421875 74.472656"/></g><g fill="#FFF"><g><g><path d="M 46.507812 -55.433594 C 46.507812 -59.628906 43.828125 -61.859375 38.917969 -61.859375 L 14.28125 -61.859375 C 9.371094 -61.859375 6.695312 -59.183594 6.785156 -54.273438 C 6.785156 -46.507812 6.875 -38.742188 6.875 -30.976562 C 6.875 -23.207031 6.785156 -15.441406 6.785156 -7.585938 C 6.695312 -2.679688 9.371094 0 14.28125 0 L 15.890625 0 C 20.796875 0 23.476562 -2.679688 23.386719 -7.585938 C 23.386719 -13.03125 23.386719 -18.386719 23.386719 -23.746094 C 27.492188 -23.65625 31.601562 -23.65625 35.527344 -23.566406 C 40.4375 -23.566406 43.113281 -25.707031 43.113281 -29.636719 C 43.113281 -33.472656 40.4375 -35.617188 35.527344 -35.617188 C 31.601562 -35.527344 27.492188 -35.527344 23.386719 -35.4375 L 23.386719 -49.097656 C 28.652344 -49.007812 34.097656 -49.007812 38.917969 -48.917969 C 43.828125 -48.917969 46.507812 -51.238281 46.507812 -55.433594 Z M 46.507812 -55.433594" transform="translate(8.238 99.073)"/></g></g></g><g fill="#FFF"><g><g><path d="M 30.707031 0.894531 C 48.203125 0.894531 56.863281 -9.730469 56.863281 -30.976562 C 56.863281 -52.128906 48.203125 -62.753906 30.707031 -62.753906 C 13.210938 -62.753906 4.464844 -52.128906 4.464844 -30.976562 C 4.464844 -9.730469 13.210938 0.894531 30.707031 0.894531 Z M 30.707031 -11.15625 C 23.65625 -11.15625 21.511719 -15.800781 21.511719 -30.976562 C 21.511719 -46.0625 23.65625 -50.703125 30.707031 -50.703125 C 37.757812 -50.703125 39.8125 -46.0625 39.8125 -30.976562 C 39.8125 -15.800781 37.757812 -11.15625 30.707031 -11.15625 Z M 30.707031 -11.15625" transform="translate(58.403 99.073)"/></g></g></g><g fill="#FFF"><g><g><path d="M 30.707031 0.894531 C 48.203125 0.894531 56.863281 -9.730469 56.863281 -30.976562 C 56.863281 -52.128906 48.203125 -62.753906 30.707031 -62.753906 C 13.210938 -62.753906 4.464844 -52.128906 4.464844 -30.976562 C 4.464844 -9.730469 13.210938 0.894531 30.707031 0.894531 Z M 30.707031 -11.15625 C 23.65625 -11.15625 21.511719 -15.800781 21.511719 -30.976562 C 21.511719 -46.0625 23.65625 -50.703125 30.707031 -50.703125 C 37.757812 -50.703125 39.8125 -46.0625 39.8125 -30.976562 C 39.8125 -15.800781 37.757812 -11.15625 30.707031 -11.15625 Z M 30.707031 -11.15625" transform="translate(119.815 99.073)"/></g></g></g><g fill="#FFF"><g><g><path d="M 27.046875 0.0898438 C 47.308594 0 55.703125 -10.085938 55.703125 -31.777344 C 55.703125 -53.558594 47.308594 -61.859375 27.046875 -61.859375 L 14.460938 -61.859375 C 9.550781 -61.859375 6.875 -59.09375 6.875 -53.917969 C 6.875 -26.867188 6.785156 -15.53125 6.695312 -7.410156 C 6.695312 -2.589844 9.371094 0 14.28125 0 Z M 23.476562 -12.320312 C 23.386719 -15.355469 23.386719 -18.65625 23.386719 -21.871094 C 23.386719 -37.132812 23.386719 -43.382812 23.476562 -49.542969 L 26.691406 -49.542969 C 36.332031 -49.542969 39.1875 -44.632812 39.1875 -30.976562 C 39.1875 -19.011719 35.972656 -12.320312 26.691406 -12.320312 Z M 23.476562 -12.320312" transform="translate(181.228 99.073)"/></g></g></g><g fill="#FFF"><g><g><path d="M 23.386719 -11.871094 L 23.386719 -24.636719 C 27.136719 -24.546875 30.886719 -24.546875 34.457031 -24.457031 C 39.367188 -24.457031 42.042969 -26.601562 42.042969 -30.527344 C 42.042969 -34.367188 39.367188 -36.507812 34.457031 -36.507812 C 30.886719 -36.421875 27.136719 -36.421875 23.386719 -36.332031 L 23.386719 -49.988281 C 28.296875 -49.898438 33.296875 -49.898438 38.027344 -49.808594 C 42.9375 -49.808594 45.613281 -51.953125 45.613281 -55.878906 C 45.613281 -59.71875 42.9375 -61.859375 38.027344 -61.859375 L 14.28125 -61.859375 C 9.371094 -61.859375 6.695312 -59.183594 6.785156 -54.273438 C 6.785156 -46.507812 6.875 -38.742188 6.875 -30.976562 C 6.875 -23.207031 6.785156 -15.441406 6.785156 -7.585938 C 6.695312 -2.679688 9.371094 0 14.28125 0 L 38.917969 0 C 43.828125 0 46.507812 -2.140625 46.507812 -6.070312 C 46.507812 -9.910156 43.828125 -12.050781 38.917969 -12.050781 C 33.921875 -11.960938 28.652344 -11.960938 23.386719 -11.871094 Z M 23.386719 -11.871094" transform="translate(241.39 99.073)"/></g></g></g><g clip-path="url(#b)"><g clip-path="url(#c)"><g clip-path="url(#d)"><g clip-path="url(#e)"><path fill="#FFF" d="M 85.539062 108.964844 C 85.503906 109.015625 85.5 109.070312 85.527344 109.128906 C 85.390625 109.300781 85.058594 109.1875 85.015625 109.492188 C 84.558594 109.988281 84.761719 110.46875 85.070312 110.9375 C 85.933594 112.25 86.992188 113.394531 88.125 114.476562 C 92.175781 118.34375 96.847656 121.1875 102.074219 123.230469 C 111.195312 126.804688 120.449219 126.929688 129.820312 124.554688 C 134.167969 123.453125 138.238281 121.613281 142.222656 119.585938 C 144.566406 118.394531 146.828125 117.066406 149.125 115.789062 C 149.1875 115.707031 149.246094 115.625 149.308594 115.542969 C 149.425781 115.535156 149.550781 115.488281 149.648438 115.527344 C 149.648438 115.527344 149.648438 115.527344 149.652344 115.527344 C 149.726562 115.558594 149.679688 115.667969 149.597656 115.714844 C 149.183594 116.65625 148.585938 117.480469 147.941406 118.273438 C 147.503906 118.816406 147.117188 119.375 146.902344 120.046875 C 145.945312 121.207031 145.964844 122.402344 146.910156 123.398438 C 149.660156 122.191406 151.265625 119.898438 152.707031 117.433594 C 153.242188 116.515625 153.839844 115.636719 154.421875 114.75 C 155.820312 112.628906 155.5 112.855469 154.585938 111 C 154.382812 110.582031 154.085938 110.222656 153.753906 109.894531 C 153.632812 109.773438 153.507812 109.671875 153.328125 109.683594 C 153.066406 109.222656 152.625 109.234375 152.191406 109.273438 C 150.910156 109.378906 149.632812 109.5 148.351562 109.617188 C 148.074219 109.480469 147.796875 109.539062 147.519531 109.609375 C 147.25 109.464844 146.96875 109.527344 146.691406 109.574219 C 146.515625 109.441406 146.308594 109.503906 146.113281 109.484375 C 143.488281 109.238281 140.929688 108.703125 138.46875 107.730469 C 138.28125 107.65625 138.09375 107.597656 137.90625 107.53125 C 137.683594 107.453125 137.429688 107.363281 137.265625 107.574219 C 137.140625 107.738281 137.191406 108.015625 137.3125 108.140625 C 137.847656 108.691406 137.960938 109.480469 138.433594 110.058594 C 138.644531 110.316406 138.941406 110.464844 139.25 110.613281 C 141.597656 111.761719 144.085938 112.460938 146.648438 112.90625 C 146.878906 112.945312 147.121094 112.953125 147.332031 113.035156 C 147.582031 113.136719 147.519531 113.34375 147.410156 113.53125 C 147.144531 113.511719 146.960938 113.625 146.851562 113.863281 C 146.605469 113.890625 146.371094 113.9375 146.257812 114.199219 C 146.195312 114.175781 146.15625 114.195312 146.140625 114.257812 C 145.90625 114.28125 145.691406 114.335938 145.578125 114.570312 C 145.421875 114.621094 145.253906 114.648438 145.109375 114.726562 C 143.523438 115.542969 141.949219 116.386719 140.351562 117.183594 C 138.902344 117.910156 137.433594 118.589844 135.972656 119.289062 C 135.5625 119.425781 135.152344 119.546875 134.75 119.699219 C 130.847656 121.164062 126.828125 122.136719 122.671875 122.507812 C 121.1875 122.640625 119.699219 122.726562 118.214844 122.832031 C 117.925781 122.683594 117.636719 122.761719 117.347656 122.832031 C 117.074219 122.6875 116.800781 122.753906 116.523438 122.820312 C 116.273438 122.664062 116.011719 122.746094 115.75 122.785156 C 115.59375 122.664062 115.429688 122.679688 115.261719 122.75 C 115.203125 122.710938 115.144531 122.710938 115.085938 122.753906 C 114.910156 122.621094 114.703125 122.679688 114.511719 122.65625 C 113.566406 122.539062 112.601562 122.589844 111.671875 122.355469 C 111.589844 122.4375 111.320312 122.488281 111.660156 122.613281 C 111.886719 122.699219 111.902344 122.761719 111.84375 122.820312 C 111.792969 122.871094 111.6875 122.914062 111.609375 122.957031 C 108.632812 122.492188 105.75 121.675781 102.917969 120.664062 C 102.664062 120.546875 102.410156 120.429688 102.15625 120.3125 C 100.636719 119.609375 99.117188 118.90625 97.597656 118.203125 C 97.566406 118.140625 97.523438 118.101562 97.46875 118.078125 C 97.433594 118.066406 97.390625 118.058594 97.347656 118.0625 C 97.292969 117.960938 97.210938 117.917969 97.101562 117.925781 C 97.050781 117.820312 96.964844 117.777344 96.855469 117.789062 C 96.804688 117.683594 96.722656 117.636719 96.605469 117.648438 C 96.558594 117.542969 96.476562 117.492188 96.363281 117.507812 C 96.316406 117.398438 96.234375 117.351562 96.121094 117.363281 L 96.117188 117.363281 C 96.074219 117.257812 95.996094 117.207031 95.882812 117.21875 L 95.875 117.21875 C 95.800781 117.164062 95.722656 117.117188 95.640625 117.074219 L 95.632812 117.066406 C 95.59375 116.960938 95.515625 116.910156 95.398438 116.921875 L 95.390625 116.917969 C 95.351562 116.8125 95.273438 116.761719 95.15625 116.773438 L 95.148438 116.769531 C 95.148438 116.769531 95.148438 116.765625 95.148438 116.765625 C 95.148438 116.765625 95.148438 116.769531 95.148438 116.769531 C 95.109375 116.660156 95.03125 116.609375 94.914062 116.621094 L 94.910156 116.617188 C 94.871094 116.507812 94.792969 116.460938 94.675781 116.46875 L 94.671875 116.46875 C 94.632812 116.359375 94.550781 116.304688 94.4375 116.316406 C 93.738281 115.800781 93.039062 115.285156 92.339844 114.769531 C 91.890625 114.617188 91.570312 114.277344 91.21875 113.988281 C 91.226562 113.933594 91.25 113.890625 91.277344 113.851562 C 91.320312 113.792969 91.375 113.75 91.453125 113.722656 C 91.210938 113.480469 90.984375 113.214844 90.640625 113.09375 C 90.535156 113.070312 90.4375 113.027344 90.355469 112.949219 C 90.449219 112.996094 90.542969 113.046875 90.640625 113.09375 C 90.578125 113 90.511719 112.917969 90.386719 112.945312 C 90.347656 112.773438 90.234375 112.675781 90.074219 112.621094 C 90.050781 112.511719 89.988281 112.445312 89.871094 112.445312 C 89.816406 112.339844 89.75 112.261719 89.625 112.253906 C 89.609375 112.199219 89.578125 112.160156 89.515625 112.136719 C 89.320312 111.855469 89.078125 111.628906 88.78125 111.460938 C 88.632812 111.269531 88.488281 111.074219 88.253906 110.976562 C 88.203125 110.820312 88.070312 110.742188 87.949219 110.65625 C 87.363281 109.898438 86.644531 109.257812 86.183594 108.351562 C 85.964844 108.636719 85.578125 108.605469 85.539062 108.964844 Z M 146.183594 114.453125 C 146.183594 114.453125 146.183594 114.453125 146.179688 114.453125 C 146.179688 114.453125 146.183594 114.453125 146.183594 114.453125 C 146.179688 114.453125 146.175781 114.453125 146.175781 114.453125 C 146.175781 114.453125 146.179688 114.453125 146.179688 114.453125 C 146.179688 114.449219 146.179688 114.445312 146.175781 114.445312 C 146.183594 114.445312 146.183594 114.449219 146.183594 114.453125 Z M 94.664062 117.113281 C 94.679688 117.128906 94.695312 117.140625 94.714844 117.15625 C 94.707031 117.15625 94.703125 117.152344 94.695312 117.148438 C 94.679688 117.140625 94.664062 117.128906 94.648438 117.117188 C 94.652344 117.117188 94.65625 117.113281 94.664062 117.113281 Z M 97.582031 118.203125 C 97.582031 118.207031 97.582031 118.207031 97.582031 118.207031 C 97.574219 118.214844 97.574219 118.222656 97.570312 118.226562 L 97.550781 118.246094 L 97.582031 118.207031 C 97.582031 118.203125 97.578125 118.203125 97.578125 118.199219 C 97.578125 118.203125 97.582031 118.203125 97.582031 118.203125 Z M 94.566406 117.152344 C 94.59375 117.140625 94.621094 117.128906 94.644531 117.121094 C 94.660156 117.128906 94.675781 117.140625 94.691406 117.148438 C 94.652344 117.132812 94.613281 117.132812 94.566406 117.152344 Z M 94.796875 117.222656 C 94.816406 117.234375 94.835938 117.246094 94.851562 117.257812 C 94.851562 117.261719 94.855469 117.261719 94.855469 117.265625 C 94.835938 117.25 94.816406 117.234375 94.796875 117.222656 Z M 86.121094 110.671875 C 86.117188 110.671875 86.113281 110.671875 86.113281 110.671875 C 86.113281 110.671875 86.109375 110.667969 86.109375 110.667969 C 86.109375 110.664062 86.105469 110.664062 86.105469 110.660156 C 86.113281 110.664062 86.113281 110.667969 86.121094 110.671875 Z M 86.382812 111.007812 C 86.382812 111.011719 86.382812 111.015625 86.386719 111.019531 C 86.386719 111.015625 86.382812 111.007812 86.382812 111.007812 Z M 90.183594 112.9375 C 90.164062 112.945312 90.148438 112.957031 90.128906 112.972656 C 90.125 112.960938 90.121094 112.949219 90.121094 112.933594 C 90.140625 112.9375 90.160156 112.933594 90.183594 112.9375 Z M 89.683594 112.375 C 89.652344 112.355469 89.632812 112.324219 89.617188 112.285156 C 89.617188 112.285156 89.617188 112.285156 89.621094 112.285156 C 89.636719 112.324219 89.65625 112.355469 89.683594 112.375 Z M 89.683594 112.375"/></g></g></g></g><g clip-path="url(#f)"><g clip-path="url(#g)"><g clip-path="url(#h)"><g clip-path="url(#i)"><path fill="#FFF" d="M 95.625 117.066406 C 95.703125 117.117188 95.785156 117.164062 95.859375 117.214844 C 95.816406 117.105469 95.738281 117.058594 95.625 117.066406 Z M 95.625 117.066406"/></g></g></g></g></svg>