<?xml version="1.0" encoding="utf-8"?>
<svg viewBox="11.238 89.037 346.009 89.839" xmlns="http://www.w3.org/2000/svg">
  <defs>
    <clipPath id="a">
      <path d="M 302.691406 158.425781 L 363.976562 158.425781 L 363.976562 219.710938 L 302.691406 219.710938 Z M 302.691406 158.425781"/>
    </clipPath>
    <clipPath id="b">
      <path d="M 87 229 L 159 229 L 159 248 L 87 248 Z M 87 229"/>
    </clipPath>
    <clipPath id="c">
      <path d="M 87.308594 230.214844 L 158.578125 226.953125 L 159.5 247.054688 L 88.226562 250.316406 Z M 87.308594 230.214844"/>
    </clipPath>
    <clipPath id="d">
      <path d="M 87.308594 230.214844 L 158.578125 226.953125 L 159.5 247.054688 L 88.226562 250.316406 Z M 87.308594 230.214844"/>
    </clipPath>
    <clipPath id="e">
      <path d="M 87.308594 230.214844 L 158.578125 226.953125 L 159.5 247.054688 L 88.226562 250.316406 Z M 87.308594 230.214844"/>
    </clipPath>
    <clipPath id="f">
      <path d="M 98 238 L 99 238 L 99 239 L 98 239 Z M 98 238"/>
    </clipPath>
    <clipPath id="g">
      <path d="M 87.308594 230.214844 L 158.578125 226.953125 L 159.5 247.054688 L 88.226562 250.316406 Z M 87.308594 230.214844"/>
    </clipPath>
    <clipPath id="h">
      <path d="M 87.308594 230.214844 L 158.578125 226.953125 L 159.5 247.054688 L 88.226562 250.316406 Z M 87.308594 230.214844"/>
    </clipPath>
    <clipPath id="i">
      <path d="M 87.308594 230.214844 L 158.578125 226.953125 L 159.5 247.054688 L 88.226562 250.316406 Z M 87.308594 230.214844"/>
    </clipPath>
  </defs>
  <g clip-path="url(#a)" transform="matrix(1, 0, 0, 1, -6.730306, -69.063812)">
    <path fill="#FFF" d="M 363.367188 196.253906 C 362.738281 195.839844 361.890625 196.035156 361.460938 196.648438 L 355.773438 204.808594 C 355.34375 205.421875 354.492188 205.617188 353.867188 205.203125 C 353.714844 205.105469 353.589844 204.976562 353.488281 204.824219 C 353.386719 204.671875 353.316406 204.507812 353.28125 204.328125 C 353.246094 204.148438 353.25 203.972656 353.289062 203.792969 C 353.324219 203.613281 353.398438 203.449219 353.5 203.300781 L 359.238281 195.066406 C 359.34375 194.917969 359.414062 194.757812 359.449219 194.582031 C 359.488281 194.40625 359.492188 194.226562 359.457031 194.050781 C 359.425781 193.875 359.359375 193.710938 359.261719 193.558594 C 359.164062 193.40625 359.042969 193.28125 358.894531 193.179688 C 358.742188 193.078125 358.582031 193.007812 358.402344 192.96875 C 358.226562 192.929688 358.050781 192.925781 357.871094 192.957031 C 357.695312 192.992188 357.527344 193.054688 357.375 193.152344 C 357.222656 193.25 357.097656 193.371094 356.992188 193.519531 L 351.277344 201.714844 C 350.851562 202.332031 349.996094 202.527344 349.371094 202.113281 C 349.21875 202.011719 349.09375 201.882812 348.992188 201.730469 C 348.890625 201.582031 348.820312 201.414062 348.785156 201.234375 C 348.753906 201.058594 348.753906 200.878906 348.792969 200.699219 C 348.828125 200.519531 348.902344 200.355469 349.003906 200.207031 L 354.71875 192.011719 C 355.148438 191.394531 355.03125 190.535156 354.421875 190.101562 C 354.273438 189.992188 354.109375 189.917969 353.929688 189.878906 C 353.75 189.835938 353.570312 189.832031 353.390625 189.863281 C 353.210938 189.894531 353.042969 189.957031 352.886719 190.054688 C 352.730469 190.152344 352.601562 190.277344 352.496094 190.429688 L 345.980469 199.777344 C 345.574219 200.363281 345.269531 200.992188 345.0625 201.671875 C 344.855469 202.351562 344.761719 203.046875 344.773438 203.753906 C 344.785156 204.464844 344.90625 205.152344 345.136719 205.824219 C 345.367188 206.496094 345.695312 207.117188 346.121094 207.683594 C 344.457031 209.917969 341.605469 212.796875 337.992188 212.796875 C 329.25 212.796875 328.457031 197.679688 328.457031 197.679688 L 328.683594 197.679688 C 339.589844 197.679688 348.433594 188.894531 348.433594 178.054688 C 348.433594 167.21875 339.589844 158.429688 328.683594 158.429688 L 309.898438 158.429688 C 309.425781 158.429688 308.957031 158.476562 308.492188 158.566406 C 308.027344 158.660156 307.578125 158.796875 307.140625 158.976562 C 306.703125 159.15625 306.289062 159.375 305.894531 159.636719 C 305.5 159.898438 305.136719 160.195312 304.804688 160.527344 C 304.46875 160.859375 304.167969 161.222656 303.90625 161.613281 C 303.644531 162.003906 303.421875 162.417969 303.242188 162.851562 C 303.058594 163.285156 302.921875 163.734375 302.832031 164.195312 C 302.738281 164.65625 302.691406 165.121094 302.691406 165.589844 L 302.691406 171.726562 C 302.691406 172.199219 302.777344 172.65625 302.945312 173.097656 C 303.117188 173.542969 303.359375 173.9375 303.679688 174.292969 C 303.996094 174.644531 304.367188 174.929688 304.789062 175.148438 C 305.210938 175.363281 305.660156 175.5 306.132812 175.550781 L 308.0625 175.765625 C 309.261719 171.324219 314.03125 167.996094 319.757812 167.996094 C 326.390625 167.996094 336.515625 172.449219 336.515625 177.9375 C 336.515625 183.429688 326.390625 187.882812 319.757812 187.882812 C 314.289062 187.882812 309.722656 184.832031 308.277344 180.683594 L 306.203125 180.878906 C 305.722656 180.925781 305.265625 181.054688 304.835938 181.269531 C 304.402344 181.484375 304.027344 181.765625 303.703125 182.121094 C 303.375 182.476562 303.128906 182.878906 302.953125 183.324219 C 302.78125 183.769531 302.691406 184.234375 302.691406 184.714844 L 302.691406 213.234375 C 302.691406 213.65625 302.734375 214.078125 302.816406 214.496094 C 302.902344 214.914062 303.023438 215.316406 303.1875 215.710938 C 303.351562 216.101562 303.554688 216.476562 303.789062 216.828125 C 304.027344 217.183594 304.296875 217.507812 304.601562 217.808594 C 304.902344 218.109375 305.230469 218.378906 305.585938 218.613281 C 305.941406 218.851562 306.316406 219.050781 306.714844 219.210938 C 307.109375 219.375 307.515625 219.496094 307.933594 219.582031 C 308.355469 219.664062 308.777344 219.707031 309.207031 219.707031 C 309.632812 219.707031 310.054688 219.664062 310.476562 219.582031 C 310.894531 219.5 311.300781 219.375 311.695312 219.214844 C 312.089844 219.050781 312.464844 218.851562 312.820312 218.617188 C 313.175781 218.382812 313.503906 218.113281 313.808594 217.8125 C 314.109375 217.511719 314.378906 217.1875 314.617188 216.835938 C 314.855469 216.480469 315.054688 216.109375 315.21875 215.71875 C 315.382812 215.324219 315.507812 214.921875 315.59375 214.503906 C 315.675781 214.089844 315.71875 213.667969 315.71875 213.242188 L 315.746094 197.679688 C 318.128906 208.960938 325.710938 220.371094 337.085938 219.675781 C 343.699219 219.269531 347.023438 213.992188 349.636719 210.113281 C 352.398438 210.9375 355.492188 209.988281 357.21875 207.511719 L 363.734375 198.160156 C 363.839844 198.007812 363.910156 197.84375 363.949219 197.667969 C 363.988281 197.488281 363.988281 197.308594 363.953125 197.128906 C 363.917969 196.953125 363.851562 196.785156 363.75 196.632812 C 363.648438 196.480469 363.519531 196.355469 363.367188 196.253906 Z M 363.367188 196.253906"/>
  </g>
  <g fill="#FFF" transform="matrix(1, 0, 0, 1, -6.730306, -69.063812)">
    <g>
      <g>
        <path d="M 46.507812 -55.433594 C 46.507812 -59.628906 43.828125 -61.859375 38.917969 -61.859375 L 14.28125 -61.859375 C 9.371094 -61.859375 6.695312 -59.183594 6.785156 -54.273438 C 6.785156 -46.507812 6.875 -38.742188 6.875 -30.976562 C 6.875 -23.207031 6.785156 -15.441406 6.785156 -7.585938 C 6.695312 -2.679688 9.371094 0 14.28125 0 L 15.890625 0 C 20.796875 0 23.476562 -2.679688 23.386719 -7.585938 C 23.386719 -13.03125 23.386719 -18.386719 23.386719 -23.746094 C 27.492188 -23.65625 31.601562 -23.65625 35.527344 -23.566406 C 40.4375 -23.566406 43.113281 -25.707031 43.113281 -29.636719 C 43.113281 -33.472656 40.4375 -35.617188 35.527344 -35.617188 C 31.601562 -35.527344 27.492188 -35.527344 23.386719 -35.4375 L 23.386719 -49.097656 C 28.652344 -49.007812 34.097656 -49.007812 38.917969 -48.917969 C 43.828125 -48.917969 46.507812 -51.238281 46.507812 -55.433594 Z M 46.507812 -55.433594" transform="translate(11.185 220.855)"/>
      </g>
    </g>
  </g>
  <g fill="#FFF" transform="matrix(1, 0, 0, 1, -6.730306, -69.063812)">
    <g>
      <g>
        <path d="M 30.707031 0.894531 C 48.203125 0.894531 56.863281 -9.730469 56.863281 -30.976562 C 56.863281 -52.128906 48.203125 -62.753906 30.707031 -62.753906 C 13.210938 -62.753906 4.464844 -52.128906 4.464844 -30.976562 C 4.464844 -9.730469 13.210938 0.894531 30.707031 0.894531 Z M 30.707031 -11.15625 C 23.65625 -11.15625 21.511719 -15.800781 21.511719 -30.976562 C 21.511719 -46.0625 23.65625 -50.703125 30.707031 -50.703125 C 37.757812 -50.703125 39.8125 -46.0625 39.8125 -30.976562 C 39.8125 -15.800781 37.757812 -11.15625 30.707031 -11.15625 Z M 30.707031 -11.15625" transform="translate(61.35 220.855)"/>
      </g>
    </g>
  </g>
  <g fill="#FFF" transform="matrix(1, 0, 0, 1, -6.730306, -69.063812)">
    <g>
      <g>
        <path d="M 30.707031 0.894531 C 48.203125 0.894531 56.863281 -9.730469 56.863281 -30.976562 C 56.863281 -52.128906 48.203125 -62.753906 30.707031 -62.753906 C 13.210938 -62.753906 4.464844 -52.128906 4.464844 -30.976562 C 4.464844 -9.730469 13.210938 0.894531 30.707031 0.894531 Z M 30.707031 -11.15625 C 23.65625 -11.15625 21.511719 -15.800781 21.511719 -30.976562 C 21.511719 -46.0625 23.65625 -50.703125 30.707031 -50.703125 C 37.757812 -50.703125 39.8125 -46.0625 39.8125 -30.976562 C 39.8125 -15.800781 37.757812 -11.15625 30.707031 -11.15625 Z M 30.707031 -11.15625" transform="translate(122.762 220.855)"/>
      </g>
    </g>
  </g>
  <g fill="#FFF" transform="matrix(1, 0, 0, 1, -6.730306, -69.063812)">
    <g>
      <g>
        <path d="M 27.046875 0.0898438 C 47.308594 0 55.703125 -10.085938 55.703125 -31.777344 C 55.703125 -53.558594 47.308594 -61.859375 27.046875 -61.859375 L 14.460938 -61.859375 C 9.550781 -61.859375 6.875 -59.09375 6.875 -53.917969 C 6.875 -26.867188 6.785156 -15.53125 6.695312 -7.410156 C 6.695312 -2.589844 9.371094 0 14.28125 0 Z M 23.476562 -12.320312 C 23.386719 -15.355469 23.386719 -18.65625 23.386719 -21.871094 C 23.386719 -37.132812 23.386719 -43.382812 23.476562 -49.542969 L 26.691406 -49.542969 C 36.332031 -49.542969 39.1875 -44.632812 39.1875 -30.976562 C 39.1875 -19.011719 35.972656 -12.320312 26.691406 -12.320312 Z M 23.476562 -12.320312" transform="translate(184.174 220.855)"/>
      </g>
    </g>
  </g>
  <g fill="#FFF" transform="matrix(1, 0, 0, 1, -6.730306, -69.063812)">
    <g>
      <g>
        <path d="M 23.386719 -11.871094 L 23.386719 -24.636719 C 27.136719 -24.546875 30.886719 -24.546875 34.457031 -24.457031 C 39.367188 -24.457031 42.042969 -26.601562 42.042969 -30.527344 C 42.042969 -34.367188 39.367188 -36.507812 34.457031 -36.507812 C 30.886719 -36.421875 27.136719 -36.421875 23.386719 -36.332031 L 23.386719 -49.988281 C 28.296875 -49.898438 33.296875 -49.898438 38.027344 -49.808594 C 42.9375 -49.808594 45.613281 -51.953125 45.613281 -55.878906 C 45.613281 -59.71875 42.9375 -61.859375 38.027344 -61.859375 L 14.28125 -61.859375 C 9.371094 -61.859375 6.695312 -59.183594 6.785156 -54.273438 C 6.785156 -46.507812 6.875 -38.742188 6.875 -30.976562 C 6.875 -23.207031 6.785156 -15.441406 6.785156 -7.585938 C 6.695312 -2.679688 9.371094 0 14.28125 0 L 38.917969 0 C 43.828125 0 46.507812 -2.140625 46.507812 -6.070312 C 46.507812 -9.910156 43.828125 -12.050781 38.917969 -12.050781 C 33.921875 -11.960938 28.652344 -11.960938 23.386719 -11.871094 Z M 23.386719 -11.871094" transform="translate(244.336 220.855)"/>
      </g>
    </g>
  </g>
  <g clip-path="url(#b)" transform="matrix(1, 0, 0, 1, -6.730306, -69.063812)">
    <g clip-path="url(#c)">
      <g clip-path="url(#d)">
        <g clip-path="url(#e)">
          <path fill="#FFF" d="M 88.484375 230.746094 C 88.449219 230.796875 88.445312 230.855469 88.472656 230.910156 C 88.335938 231.082031 88.003906 230.96875 87.964844 231.273438 C 87.503906 231.769531 87.710938 232.25 88.015625 232.71875 C 88.878906 234.03125 89.9375 235.175781 91.070312 236.257812 C 95.121094 240.125 99.792969 242.96875 105.019531 245.011719 C 114.144531 248.585938 123.398438 248.714844 132.769531 246.335938 C 137.113281 245.234375 141.183594 243.394531 145.167969 241.367188 C 147.511719 240.175781 149.773438 238.847656 152.070312 237.570312 C 152.132812 237.488281 152.191406 237.40625 152.253906 237.324219 C 152.371094 237.316406 152.496094 237.269531 152.59375 237.308594 C 152.59375 237.308594 152.59375 237.308594 152.597656 237.308594 C 152.671875 237.339844 152.628906 237.449219 152.546875 237.496094 C 152.132812 238.4375 151.53125 239.261719 150.890625 240.054688 C 150.449219 240.597656 150.0625 241.15625 149.847656 241.828125 C 148.894531 242.988281 148.914062 244.183594 149.855469 245.179688 C 152.605469 243.972656 154.210938 241.679688 155.652344 239.214844 C 156.191406 238.296875 156.785156 237.417969 157.371094 236.53125 C 158.769531 234.410156 158.445312 234.636719 157.535156 232.78125 C 157.328125 232.367188 157.03125 232.003906 156.699219 231.675781 C 156.578125 231.554688 156.457031 231.453125 156.273438 231.464844 C 156.015625 231.003906 155.570312 231.015625 155.140625 231.054688 C 153.855469 231.160156 152.578125 231.28125 151.296875 231.398438 C 151.019531 231.261719 150.742188 231.320312 150.464844 231.390625 C 150.195312 231.246094 149.914062 231.308594 149.636719 231.359375 C 149.460938 231.222656 149.253906 231.285156 149.058594 231.269531 C 146.433594 231.019531 143.875 230.484375 141.414062 229.511719 C 141.230469 229.4375 141.039062 229.378906 140.851562 229.316406 C 140.628906 229.234375 140.375 229.144531 140.210938 229.355469 C 140.085938 229.519531 140.136719 229.800781 140.257812 229.921875 C 140.796875 230.472656 140.910156 231.261719 141.382812 231.839844 C 141.589844 232.097656 141.890625 232.246094 142.195312 232.394531 C 144.542969 233.542969 147.03125 234.242188 149.597656 234.6875 C 149.824219 234.726562 150.066406 234.734375 150.28125 234.820312 C 150.527344 234.917969 150.46875 235.125 150.355469 235.3125 C 150.089844 235.292969 149.90625 235.410156 149.796875 235.644531 C 149.550781 235.671875 149.316406 235.71875 149.203125 235.980469 C 149.140625 235.957031 149.101562 235.976562 149.085938 236.039062 C 148.851562 236.0625 148.640625 236.117188 148.523438 236.355469 C 148.367188 236.402344 148.203125 236.433594 148.058594 236.507812 C 146.46875 237.324219 144.894531 238.167969 143.296875 238.964844 C 141.847656 239.691406 140.378906 240.371094 138.917969 241.070312 C 138.507812 241.207031 138.097656 241.328125 137.695312 241.480469 C 133.792969 242.945312 129.773438 243.917969 125.617188 244.289062 C 124.132812 244.421875 122.648438 244.507812 121.160156 244.613281 C 120.871094 244.46875 120.585938 244.542969 120.292969 244.613281 C 120.019531 244.46875 119.746094 244.535156 119.46875 244.601562 C 119.21875 244.445312 118.957031 244.527344 118.699219 244.566406 C 118.542969 244.445312 118.375 244.460938 118.207031 244.53125 C 118.148438 244.492188 118.089844 244.492188 118.03125 244.535156 C 117.855469 244.40625 117.648438 244.460938 117.457031 244.4375 C 116.511719 244.320312 115.550781 244.371094 114.617188 244.136719 C 114.539062 244.21875 114.269531 244.269531 114.605469 244.394531 C 114.832031 244.480469 114.847656 244.542969 114.789062 244.601562 C 114.742188 244.652344 114.632812 244.695312 114.558594 244.738281 C 111.582031 244.273438 108.695312 243.457031 105.863281 242.449219 C 105.609375 242.328125 105.355469 242.210938 105.101562 242.09375 C 103.582031 241.390625 102.0625 240.6875 100.546875 239.984375 C 100.515625 239.921875 100.46875 239.882812 100.414062 239.859375 C 100.378906 239.847656 100.339844 239.839844 100.292969 239.84375 C 100.242188 239.742188 100.15625 239.699219 100.046875 239.707031 C 99.996094 239.601562 99.914062 239.558594 99.800781 239.570312 C 99.753906 239.464844 99.667969 239.417969 99.554688 239.429688 C 99.507812 239.324219 99.425781 239.273438 99.308594 239.289062 C 99.265625 239.179688 99.183594 239.132812 99.066406 239.144531 L 99.0625 239.144531 C 99.023438 239.039062 98.941406 238.988281 98.828125 239 L 98.824219 239 C 98.75 238.945312 98.667969 238.898438 98.589844 238.855469 L 98.582031 238.847656 C 98.539062 238.742188 98.460938 238.695312 98.347656 238.703125 L 98.339844 238.699219 C 98.296875 238.59375 98.21875 238.542969 98.105469 238.554688 L 98.097656 238.550781 C 98.097656 238.550781 98.09375 238.546875 98.09375 238.546875 C 98.09375 238.546875 98.097656 238.550781 98.097656 238.550781 C 98.058594 238.441406 97.976562 238.390625 97.863281 238.402344 L 97.855469 238.398438 C 97.816406 238.289062 97.738281 238.242188 97.621094 238.25 C 97.578125 238.140625 97.5 238.089844 97.382812 238.097656 C 96.683594 237.582031 95.984375 237.066406 95.285156 236.550781 C 94.835938 236.398438 94.515625 236.058594 94.164062 235.769531 C 94.175781 235.714844 94.195312 235.671875 94.222656 235.636719 C 94.265625 235.574219 94.320312 235.53125 94.398438 235.503906 C 94.15625 235.261719 93.929688 234.996094 93.589844 234.878906 C 93.480469 234.851562 93.382812 234.808594 93.300781 234.730469 C 93.394531 234.777344 93.492188 234.828125 93.589844 234.878906 C 93.527344 234.78125 93.457031 234.699219 93.332031 234.726562 C 93.292969 234.554688 93.179688 234.457031 93.019531 234.402344 C 92.996094 234.292969 92.933594 234.226562 92.816406 234.226562 C 92.765625 234.121094 92.695312 234.042969 92.570312 234.035156 C 92.554688 233.980469 92.523438 233.941406 92.464844 233.921875 C 92.269531 233.636719 92.027344 233.410156 91.726562 233.242188 C 91.578125 233.050781 91.433594 232.855469 91.199219 232.757812 C 91.152344 232.601562 91.019531 232.523438 90.894531 232.4375 C 90.308594 231.683594 89.589844 231.039062 89.128906 230.132812 C 88.914062 230.417969 88.527344 230.386719 88.484375 230.746094 Z M 149.132812 236.234375 C 149.128906 236.234375 149.128906 236.234375 149.125 236.234375 C 149.125 236.234375 149.128906 236.234375 149.128906 236.234375 C 149.125 236.234375 149.121094 236.234375 149.121094 236.234375 C 149.121094 236.234375 149.125 236.234375 149.125 236.234375 C 149.125 236.230469 149.125 236.226562 149.121094 236.226562 C 149.128906 236.226562 149.128906 236.230469 149.132812 236.234375 Z M 97.609375 238.894531 C 97.625 238.910156 97.644531 238.925781 97.660156 238.9375 C 97.652344 238.9375 97.648438 238.933594 97.644531 238.933594 C 97.628906 238.921875 97.609375 238.914062 97.59375 238.898438 C 97.597656 238.898438 97.601562 238.898438 97.609375 238.894531 Z M 100.53125 239.984375 C 100.53125 239.988281 100.527344 239.988281 100.527344 239.992188 C 100.523438 239.996094 100.519531 240.003906 100.515625 240.007812 L 100.496094 240.027344 L 100.527344 239.988281 C 100.527344 239.984375 100.523438 239.984375 100.523438 239.984375 C 100.523438 239.984375 100.527344 239.984375 100.53125 239.984375 Z M 97.515625 238.933594 C 97.539062 238.921875 97.566406 238.910156 97.589844 238.902344 C 97.605469 238.914062 97.621094 238.921875 97.636719 238.933594 C 97.601562 238.914062 97.558594 238.914062 97.515625 238.933594 Z M 97.746094 239.003906 C 97.761719 239.015625 97.78125 239.027344 97.800781 239.039062 C 97.800781 239.042969 97.800781 239.042969 97.800781 239.046875 C 97.78125 239.03125 97.761719 239.015625 97.746094 239.003906 Z M 89.066406 232.453125 C 89.0625 232.453125 89.0625 232.453125 89.058594 232.453125 C 89.058594 232.453125 89.054688 232.449219 89.054688 232.449219 C 89.054688 232.445312 89.054688 232.445312 89.054688 232.441406 C 89.058594 232.445312 89.0625 232.449219 89.066406 232.453125 Z M 89.328125 232.789062 C 89.328125 232.792969 89.328125 232.796875 89.332031 232.800781 C 89.332031 232.796875 89.328125 232.789062 89.328125 232.789062 Z M 93.128906 234.71875 C 93.109375 234.726562 93.09375 234.738281 93.074219 234.753906 C 93.074219 234.742188 93.070312 234.730469 93.066406 234.714844 C 93.085938 234.71875 93.109375 234.71875 93.128906 234.71875 Z M 92.628906 234.15625 C 92.601562 234.136719 92.578125 234.109375 92.5625 234.070312 C 92.5625 234.070312 92.5625 234.070312 92.566406 234.070312 C 92.582031 234.105469 92.601562 234.136719 92.628906 234.15625 Z M 92.628906 234.15625"/>
        </g>
      </g>
    </g>
  </g>
  <g clip-path="url(#f)" transform="matrix(1, 0, 0, 1, -6.730306, -69.063812)">
    <g clip-path="url(#g)">
      <g clip-path="url(#h)">
        <g clip-path="url(#i)">
          <path fill="#FFF" d="M 98.574219 238.851562 C 98.652344 238.898438 98.730469 238.945312 98.804688 238.996094 C 98.765625 238.886719 98.6875 238.839844 98.574219 238.851562 Z M 98.574219 238.851562"/>
        </g>
      </g>
    </g>
  </g>
</svg>